<svg xmlns="http://www.w3.org/2000/svg" width="148.504" height="148.504" viewBox="0 0 148.504 148.504"><g transform="translate(-2 -2)"><path d="M76.252,2a74.252,74.252,0,1,0,0,148.5V113.378a37.126,37.126,0,0,1,0-74.252Z" fill="#8bd9bf"/><path d="M38.417,63.168A24.751,24.751,0,1,0,13.667,38.417,24.75,24.75,0,0,0,38.417,63.168Z" transform="translate(37.835 37.835)" fill="#8bd9bf"/><path d="M2,19.5a74.252,74.252,0,1,0,148.5,0H113.378a37.126,37.126,0,0,1-74.252,0Z" transform="translate(0 56.752)" fill="#3c8f73"/><path d="M63.168,38.418a24.751,24.751,0,0,0-49.5,0h49.5Z" transform="translate(37.835 37.834)" fill="#3c8f73"/></g></svg>